<?xml version="1.0" encoding="utf-8"?>
<!-- Generator: Adobe Illustrator 27.4.1, SVG Export Plug-In . SVG Version: 6.00 Build 0)  -->
<svg version="1.1" id="Layer_2" xmlns="http://www.w3.org/2000/svg" xmlns:xlink="http://www.w3.org/1999/xlink" x="0px" y="0px"
	 viewBox="0 0 360 360" enable-background="new 0 0 360 360" xml:space="preserve">
<g>
	<path fill="#C1653B" d="M207.1,324.3c-9.43,0-19.6-7.47-19.6-19.55v-93.13c0-10.76,8.73-19.52,19.46-19.52
		c2.04,0,4.08,0.33,6.07,0.97l88.57,28.78c7.12,2.31,12.06,8.11,13.23,15.5c1.17,7.39-1.75,14.43-7.8,18.83l-88.57,64.35
		C215.06,323,211.14,324.3,207.1,324.3z"/>
</g>
<g>
	<path fill="#FF4B37" d="M152.9,324.3c-4.04,0-7.96-1.3-11.36-3.77l-88.57-64.35c-6.05-4.4-8.97-11.44-7.8-18.83
		c1.17-7.39,6.12-13.18,13.23-15.5l88.57-28.78c1.99-0.65,4.03-0.97,6.07-0.97c10.73,0,19.46,8.76,19.46,19.52v93.13
		C172.5,316.83,162.33,324.3,152.9,324.3z"/>
</g>
<g>
	<path fill="#49B5AF" d="M47.61,208.59c-6.12,0-11.99-3.05-15.71-8.16c-3.67-5.05-4.66-11.4-2.71-17.41L63.03,78.9
		c3.23-9.95,12.06-13.48,18.64-13.48c3.67,0,10.59,1.05,15.68,8.05l54.74,75.34c3.71,5.11,4.72,11.48,2.77,17.49
		s-6.51,10.57-12.52,12.52l-88.57,28.78C51.73,208.25,49.65,208.59,47.61,208.59z"/>
</g>
<g>
	<path fill="#613B92" d="M180,148.03c-6.31,0-12.06-2.93-15.78-8.04l-54.74-75.34c-4.4-6.05-5-13.65-1.6-20.32
		c3.4-6.67,9.89-10.65,17.37-10.65h109.48c7.48,0,13.98,3.98,17.38,10.65c3.4,6.67,2.8,14.26-1.6,20.31l-54.74,75.34
		C192.06,145.1,186.31,148.03,180,148.03z"/>
</g>
<g>
	<path fill="#F7CE3B" d="M312.39,208.59c-2.05,0-4.12-0.34-6.16-1l-88.57-28.78c-6-1.95-10.57-6.52-12.52-12.52
		s-0.94-12.38,2.77-17.49l54.74-75.34c3.72-5.11,9.43-8.05,15.68-8.05c6.58,0,15.41,3.53,18.64,13.48l33.83,104.12
		c1.95,6.01,0.97,12.36-2.71,17.41C324.39,205.54,318.52,208.59,312.39,208.59z"/>
</g>
</svg>
